<?xml version="1.0" encoding="utf-8"?>
<!-- Generator: Adobe Illustrator 26.0.0, SVG Export Plug-In . SVG Version: 6.00 Build 0)  -->
<svg version="1.1" id="Capa_1" xmlns="http://www.w3.org/2000/svg" xmlns:xlink="http://www.w3.org/1999/xlink" x="0px" y="0px"
	 viewBox="0 0 500 121" style="enable-background:new 0 0 500 121;" xml:space="preserve">
<style type="text/css">
	.st0{fill:#00416D;}
	.st1{fill:#E97722;}
	.st2{fill:#3A3A3A;}
</style>
<text transform="matrix(1 0 0 1 -470.3018 77.9617)" class="st1" style="font-family:'Montserrat-Medium'; font-size:100.0027px;">s</text>
<text transform="matrix(1 0 0 1 -504.3018 99.9524)" class="st0" style="font-family:'Montserrat-Light'; font-size:187.9192px;">c</text>
<text transform="matrix(1 0 0 1 -400.3018 55.333)"><tspan x="0" y="0" class="st0" style="font-family:'Montserrat-SemiBold'; font-size:64.9668px;">conect</tspan><tspan x="229.9" y="0" class="st1" style="font-family:'Montserrat-SemiBold'; font-size:64.9668px;">serv</tspan></text>
<text transform="matrix(1 0 0 1 -397.9995 91.1738)" class="st2" style="font-family:'Montserrat-Medium'; font-size:34.6071px; letter-spacing:1;">Servicios integrales</text>
<g>
	<g>
		<path class="st0" d="M94.7,93.7c-4.2,6.3-9.6,11-16.4,14.1c-6.7,3.1-14.2,4.7-22.5,4.7c-10,0-18.8-2.2-26.6-6.7
			c-7.8-4.5-13.9-10.6-18.4-18.5C6.3,79.5,4,70.6,4,60.5c0-10.2,2.3-19.2,6.8-27.1c4.5-7.9,10.7-14,18.4-18.4
			c7.8-4.4,16.6-6.6,26.6-6.6c8.2,0,15.7,1.6,22.5,4.7c2.5,1.2,4.8,2.5,6.9,4.1l-4,8.5c-2.3-1.9-4.8-3.5-7.5-4.7
			c-5.5-2.5-11.4-3.7-17.8-3.7c-8,0-15.2,1.8-21.5,5.4C28,26.3,23,31.4,19.4,37.8c-3.6,6.5-5.4,14-5.4,22.7c0,8.6,1.8,16.2,5.4,22.7
			C23,89.6,28,94.7,34.3,98.3c6.3,3.6,13.5,5.4,21.5,5.4c6.4,0,12.4-1.2,17.8-3.7c5.5-2.5,10.1-6.3,13.7-11.6L94.7,93.7z"/>
	</g>
</g>
<path class="st1" d="M79.2,73c0,3.3-1,6.2-2.9,8.7c-2,2.4-4.7,4.3-8.2,5.7c-3.6,1.4-7.8,2-12.7,2c-4.6,0-9-0.6-13.1-1.9
	c-4.1-1.2-7.4-2.8-9.8-4.6l4.2-7.9c2.4,1.6,5.3,3,8.8,4.1c3.5,1.1,7,1.7,10.7,1.7c4.7,0,8-0.7,10.1-2c2.1-1.3,3.1-3.2,3.1-5.5
	c0-1.7-0.6-3.1-1.9-4.1c-1.2-1-2.9-1.7-5-2.2c-2-0.5-4.3-0.9-6.8-1.3c-2.5-0.4-5-0.9-7.5-1.5c-2.5-0.6-4.8-1.4-6.9-2.5
	c-2.1-1.1-3.8-2.6-5-4.5c-1.2-1.9-1.9-4.5-1.9-7.7c0-3.3,0.9-6.3,2.8-8.8c1.9-2.5,4.5-4.4,8-5.8c3.5-1.4,7.5-2,12.3-2
	c3.6,0,7.3,0.4,11,1.3c3,0.7,5.5,1.6,7.7,2.8l-3.8,8.2c-2.2-1.3-4.5-2.3-6.8-2.8c-2.7-0.6-5.4-0.9-8.1-0.9c-4.4,0-7.7,0.7-9.8,2.1
	c-2.2,1.4-3.2,3.2-3.2,5.5c0,1.9,0.6,3.3,1.9,4.3c1.3,1,3,1.8,5,2.4c2.1,0.6,4.3,1,6.8,1.4c2.5,0.4,5,0.9,7.5,1.5
	c2.5,0.6,4.8,1.4,6.8,2.5c2,1,3.7,2.5,5,4.4C78.5,67.3,79.2,69.9,79.2,73z"/>
<g>
	<g>
		<path class="st0" d="M146.9,61.1c-3.6,0-6.9-0.8-9.7-2.3c-2.8-1.5-5.1-3.6-6.7-6.3c-1.6-2.7-2.4-5.7-2.4-9.2
			c0-3.5,0.8-6.5,2.4-9.2c1.6-2.7,3.8-4.8,6.7-6.3c2.8-1.5,6.1-2.3,9.7-2.3c3.4,0,6.4,0.7,8.9,2c2.6,1.4,4.5,3.4,5.9,6l-6.2,3.6
			c-1-1.6-2.3-2.9-3.8-3.6c-1.5-0.8-3.1-1.2-4.8-1.2c-2,0-3.8,0.4-5.4,1.3c-1.6,0.9-2.9,2.1-3.8,3.7c-0.9,1.6-1.4,3.6-1.4,5.8
			c0,2.3,0.5,4.2,1.4,5.8c0.9,1.6,2.2,2.9,3.8,3.7c1.6,0.9,3.4,1.3,5.4,1.3c1.7,0,3.3-0.4,4.8-1.2c1.5-0.8,2.8-2,3.8-3.6l6.2,3.6
			c-1.3,2.6-3.3,4.6-5.9,6C153.2,60.4,150.3,61.1,146.9,61.1z"/>
		<path class="st0" d="M183.8,61.1c-3.6,0-6.7-0.8-9.5-2.3c-2.8-1.5-5-3.6-6.6-6.3c-1.6-2.7-2.4-5.7-2.4-9.2c0-3.5,0.8-6.5,2.4-9.2
			c1.6-2.7,3.8-4.8,6.6-6.3c2.8-1.5,5.9-2.3,9.5-2.3c3.6,0,6.8,0.8,9.6,2.3c2.8,1.5,5,3.6,6.6,6.2c1.6,2.6,2.4,5.7,2.4,9.2
			c0,3.4-0.8,6.5-2.4,9.2c-1.6,2.7-3.8,4.8-6.6,6.3C190.6,60.3,187.4,61.1,183.8,61.1z M183.8,54.1c2,0,3.8-0.4,5.3-1.3
			c1.6-0.9,2.8-2.1,3.7-3.8c0.9-1.6,1.3-3.6,1.3-5.8c0-2.3-0.4-4.2-1.3-5.8c-0.9-1.6-2.1-2.9-3.7-3.7c-1.6-0.9-3.3-1.3-5.3-1.3
			c-2,0-3.8,0.4-5.3,1.3c-1.5,0.9-2.8,2.1-3.7,3.7s-1.4,3.6-1.4,5.8c0,2.2,0.5,4.1,1.4,5.8c0.9,1.6,2.1,2.9,3.7,3.8
			C180.1,53.7,181.8,54.1,183.8,54.1z"/>
		<path class="st0" d="M229.8,25.5c2.8,0,5.3,0.5,7.4,1.6c2.2,1.1,3.9,2.7,5.2,5c1.3,2.2,1.9,5.1,1.9,8.6v19.9h-8.1V41.8
			c0-3.1-0.7-5.4-2.2-6.9c-1.5-1.5-3.5-2.3-6.1-2.3c-1.9,0-3.6,0.4-5.1,1.2c-1.5,0.8-2.6,1.9-3.4,3.5c-0.8,1.5-1.2,3.5-1.2,5.8v17.5
			h-8.1V25.9h7.7v9.4l-1.4-2.9c1.2-2.2,3-3.9,5.3-5.1C224.1,26.1,226.7,25.5,229.8,25.5z"/>
		<path class="st0" d="M271,61.1c-3.9,0-7.2-0.8-10.1-2.3c-2.9-1.5-5.1-3.6-6.7-6.3c-1.6-2.7-2.4-5.7-2.4-9.2c0-3.5,0.8-6.5,2.3-9.2
			c1.5-2.7,3.7-4.8,6.4-6.3c2.7-1.5,5.8-2.3,9.3-2.3c3.4,0,6.4,0.7,9,2.2c2.6,1.5,4.7,3.6,6.2,6.2c1.5,2.7,2.3,5.8,2.3,9.5
			c0,0.3,0,0.7,0,1.2c0,0.4-0.1,0.8-0.1,1.2h-28.9v-5.4h24.6l-3.2,1.7c0-2-0.4-3.7-1.2-5.3c-0.9-1.5-2-2.7-3.5-3.6
			c-1.5-0.9-3.2-1.3-5.2-1.3c-2,0-3.7,0.4-5.2,1.3c-1.5,0.9-2.7,2.1-3.5,3.6c-0.8,1.5-1.3,3.3-1.3,5.4v1.3c0,2.1,0.5,3.9,1.4,5.5
			c1,1.6,2.3,2.8,4,3.7c1.7,0.9,3.7,1.3,6,1.3c1.9,0,3.7-0.3,5.3-0.9c1.6-0.6,2.9-1.6,4.2-2.9l4.4,5c-1.6,1.8-3.5,3.2-5.9,4.2
			C276.7,60.6,274,61.1,271,61.1z"/>
		<path class="st0" d="M311,61.1c-3.6,0-6.9-0.8-9.7-2.3c-2.8-1.5-5.1-3.6-6.7-6.3c-1.6-2.7-2.4-5.7-2.4-9.2c0-3.5,0.8-6.5,2.4-9.2
			s3.8-4.8,6.7-6.3c2.8-1.5,6.1-2.3,9.7-2.3c3.4,0,6.4,0.7,8.9,2s4.5,3.4,5.9,6l-6.2,3.6c-1-1.6-2.3-2.9-3.8-3.6
			c-1.5-0.8-3.1-1.2-4.8-1.2c-2,0-3.8,0.4-5.4,1.3c-1.6,0.9-2.9,2.1-3.8,3.7c-0.9,1.6-1.4,3.6-1.4,5.8c0,2.3,0.5,4.2,1.4,5.8
			c0.9,1.6,2.2,2.9,3.8,3.7c1.6,0.9,3.4,1.3,5.4,1.3c1.7,0,3.3-0.4,4.8-1.2c1.5-0.8,2.8-2,3.8-3.6l6.2,3.6c-1.3,2.6-3.3,4.6-5.9,6
			C317.3,60.4,314.4,61.1,311,61.1z"/>
		<path class="st0" d="M328.7,32.7v-6.5h23.1v6.5H328.7z M346.3,61.1c-3.8,0-6.8-1-8.8-3c-2.1-2-3.1-4.9-3.1-8.7V18.3h8.1v30.9
			c0,1.6,0.4,2.9,1.3,3.8s2,1.4,3.5,1.4c1.8,0,3.3-0.5,4.5-1.4l2.3,5.8c-1,0.8-2.1,1.4-3.5,1.8C349.2,60.9,347.8,61.1,346.3,61.1z"
			/>
		<path class="st1" d="M371.5,61.1c-2.9,0-5.7-0.4-8.3-1.1c-2.7-0.8-4.8-1.7-6.3-2.8L360,51c1.6,1,3.4,1.8,5.6,2.5
			c2.2,0.6,4.3,1,6.5,1c2.6,0,4.4-0.3,5.6-1c1.1-0.7,1.7-1.6,1.7-2.8c0-1-0.4-1.7-1.2-2.2c-0.8-0.5-1.8-0.9-3.1-1.1
			c-1.3-0.3-2.7-0.5-4.2-0.7c-1.5-0.2-3.1-0.5-4.6-0.9c-1.5-0.4-2.9-0.9-4.2-1.6c-1.3-0.7-2.3-1.7-3.1-2.9c-0.8-1.2-1.2-2.8-1.2-4.8
			c0-2.2,0.6-4.1,1.9-5.8c1.3-1.6,3-2.9,5.3-3.8c2.3-0.9,5-1.3,8.1-1.3c2.3,0,4.7,0.3,7.1,0.8c2.4,0.5,4.4,1.3,5.9,2.2l-3.1,6.2
			c-1.6-1-3.3-1.7-5-2c-1.7-0.4-3.3-0.6-5-0.6c-2.5,0-4.3,0.4-5.5,1.1c-1.2,0.7-1.8,1.7-1.8,2.8c0,1,0.4,1.8,1.2,2.3
			c0.8,0.5,1.8,0.9,3.1,1.2c1.3,0.3,2.7,0.6,4.2,0.7c1.5,0.2,3.1,0.5,4.6,0.9c1.5,0.4,2.9,0.9,4.2,1.6c1.3,0.7,2.3,1.6,3.1,2.8
			c0.8,1.2,1.2,2.8,1.2,4.7c0,2.2-0.6,4.1-1.9,5.7c-1.3,1.6-3.1,2.8-5.4,3.7S374.8,61.1,371.5,61.1z"/>
		<path class="st1" d="M410.6,61.1c-3.9,0-7.2-0.8-10.1-2.3c-2.9-1.5-5.1-3.6-6.7-6.3c-1.6-2.7-2.4-5.7-2.4-9.2
			c0-3.5,0.8-6.5,2.3-9.2c1.5-2.7,3.7-4.8,6.4-6.3c2.7-1.5,5.8-2.3,9.3-2.3c3.4,0,6.4,0.7,9,2.2c2.6,1.5,4.7,3.6,6.2,6.2
			c1.5,2.7,2.3,5.8,2.3,9.5c0,0.3,0,0.7,0,1.2c0,0.4-0.1,0.8-0.1,1.2h-28.9v-5.4h24.6l-3.2,1.7c0-2-0.4-3.7-1.2-5.3
			c-0.9-1.5-2-2.7-3.5-3.6c-1.5-0.9-3.2-1.3-5.2-1.3c-2,0-3.7,0.4-5.2,1.3c-1.5,0.9-2.7,2.1-3.5,3.6c-0.8,1.5-1.3,3.3-1.3,5.4v1.3
			c0,2.1,0.5,3.9,1.4,5.5c1,1.6,2.3,2.8,4,3.7c1.7,0.9,3.7,1.3,6,1.3c1.9,0,3.7-0.3,5.3-0.9c1.6-0.6,2.9-1.6,4.2-2.9l4.4,5
			c-1.6,1.8-3.5,3.2-5.9,4.2C416.3,60.6,413.6,61.1,410.6,61.1z"/>
		<path class="st1" d="M434.7,60.6V25.9h7.7v9.6l-0.9-2.8c1-2.3,2.7-4.1,4.9-5.3c2.2-1.2,5-1.8,8.3-1.8v7.7c-0.3-0.1-0.7-0.1-1-0.2
			c-0.3,0-0.6,0-0.9,0c-3.1,0-5.5,0.9-7.3,2.7c-1.8,1.8-2.7,4.5-2.7,8v16.8H434.7z"/>
		<path class="st1" d="M472.2,60.6l-14.9-34.7h8.4l12.8,30.6h-4.2l13.3-30.6h7.8l-14.9,34.7H472.2z"/>
	</g>
	<g>
		<path class="st2" d="M138.6,96.2c-1.8,0-3.5-0.3-5.2-0.8c-1.7-0.6-3-1.3-3.9-2.2l1.3-2.7c0.9,0.8,2.1,1.5,3.5,2
			c1.4,0.5,2.9,0.8,4.4,0.8c1.4,0,2.5-0.2,3.4-0.5c0.9-0.3,1.5-0.8,1.9-1.3s0.6-1.2,0.6-1.9c0-0.8-0.3-1.5-0.8-2
			c-0.5-0.5-1.2-0.9-2.1-1.2c-0.9-0.3-1.8-0.6-2.8-0.8c-1-0.2-2-0.5-3.1-0.8c-1-0.3-2-0.7-2.8-1.2c-0.8-0.5-1.5-1.1-2.1-1.9
			c-0.5-0.8-0.8-1.8-0.8-3.1c0-1.2,0.3-2.4,1-3.4c0.6-1,1.6-1.9,3-2.5c1.3-0.6,3.1-0.9,5.1-0.9c1.4,0,2.8,0.2,4.1,0.5
			s2.5,0.9,3.5,1.6l-1.1,2.7c-1-0.7-2.1-1.2-3.2-1.5c-1.1-0.3-2.2-0.5-3.3-0.5c-1.3,0-2.4,0.2-3.3,0.5c-0.9,0.3-1.5,0.8-1.9,1.4
			s-0.6,1.2-0.6,1.9c0,0.8,0.3,1.5,0.8,2c0.5,0.5,1.2,0.9,2.1,1.2c0.8,0.3,1.8,0.6,2.8,0.8s2,0.5,3.1,0.8s2,0.7,2.8,1.2
			c0.8,0.5,1.5,1.1,2.1,1.9c0.5,0.8,0.8,1.8,0.8,3.1c0,1.2-0.3,2.3-1,3.3c-0.7,1-1.7,1.9-3,2.5C142.4,95.9,140.7,96.2,138.6,96.2z"
			/>
		<path class="st2" d="M162.1,96.1c-1.9,0-3.6-0.4-5.1-1.2c-1.5-0.8-2.6-1.9-3.4-3.3c-0.8-1.4-1.2-3-1.2-4.8c0-1.8,0.4-3.4,1.2-4.8
			c0.8-1.4,1.9-2.5,3.2-3.2c1.4-0.8,2.9-1.2,4.6-1.2c1.7,0,3.3,0.4,4.6,1.2c1.3,0.8,2.4,1.9,3.1,3.2s1.1,3,1.1,4.9
			c0,0.1,0,0.3,0,0.5c0,0.2,0,0.4-0.1,0.5h-15.3v-2.3h13.6l-1.3,0.8c0-1.2-0.2-2.2-0.7-3.1s-1.2-1.6-2.1-2.1c-0.9-0.5-1.9-0.8-3-0.8
			c-1.1,0-2.1,0.3-3,0.8s-1.6,1.2-2.1,2.1c-0.5,0.9-0.7,2-0.7,3.1v0.5c0,1.2,0.3,2.3,0.8,3.2c0.6,0.9,1.3,1.7,2.3,2.2
			c1,0.5,2.1,0.8,3.4,0.8c1.1,0,2-0.2,2.9-0.5c0.9-0.4,1.6-0.9,2.3-1.6l1.8,2.1c-0.8,1-1.8,1.7-3,2.2
			C164.9,95.9,163.6,96.1,162.1,96.1z"/>
		<path class="st2" d="M176.6,95.9v-18h3.1v4.9l-0.3-1.2c0.5-1.2,1.3-2.2,2.5-2.9c1.2-0.7,2.6-1,4.4-1v3.2c-0.1,0-0.3,0-0.4,0
			c-0.1,0-0.2,0-0.4,0c-1.7,0-3.1,0.5-4.1,1.6c-1,1-1.5,2.5-1.5,4.5v9H176.6z"/>
		<path class="st2" d="M197.5,95.9l-7.9-18h3.4l7,16.3h-1.6l7.1-16.3h3.2l-7.9,18H197.5z"/>
		<path class="st2" d="M215.2,74.5c-0.6,0-1.2-0.2-1.6-0.6s-0.6-0.9-0.6-1.5c0-0.6,0.2-1.1,0.6-1.5s0.9-0.6,1.6-0.6
			c0.6,0,1.2,0.2,1.6,0.6c0.4,0.4,0.6,0.9,0.6,1.5c0,0.6-0.2,1.1-0.6,1.5C216.4,74.2,215.9,74.5,215.2,74.5z M213.6,95.9v-18h3.3v18
			H213.6z"/>
		<path class="st2" d="M232.7,96.1c-1.8,0-3.5-0.4-4.9-1.2c-1.4-0.8-2.6-1.9-3.4-3.3c-0.8-1.4-1.2-3-1.2-4.8c0-1.8,0.4-3.4,1.2-4.8
			c0.8-1.4,1.9-2.5,3.4-3.2c1.4-0.8,3.1-1.2,4.9-1.2c1.6,0,3.1,0.3,4.4,1c1.3,0.6,2.3,1.6,3,2.9l-2.5,1.6c-0.6-0.9-1.3-1.5-2.2-2
			c-0.8-0.4-1.8-0.6-2.7-0.6c-1.2,0-2.2,0.3-3.2,0.8c-0.9,0.5-1.7,1.3-2.2,2.2c-0.5,0.9-0.8,2.1-0.8,3.3s0.3,2.4,0.8,3.4
			s1.3,1.7,2.2,2.2c0.9,0.5,2,0.8,3.2,0.8c1,0,1.9-0.2,2.7-0.6c0.8-0.4,1.6-1.1,2.2-2l2.5,1.6c-0.7,1.2-1.7,2.2-3,2.9
			C235.8,95.8,234.3,96.1,232.7,96.1z"/>
		<path class="st2" d="M247.4,74.5c-0.6,0-1.2-0.2-1.6-0.6s-0.6-0.9-0.6-1.5c0-0.6,0.2-1.1,0.6-1.5s0.9-0.6,1.6-0.6
			c0.6,0,1.2,0.2,1.6,0.6c0.4,0.4,0.6,0.9,0.6,1.5c0,0.6-0.2,1.1-0.6,1.5C248.6,74.2,248.1,74.5,247.4,74.5z M245.8,95.9v-18h3.3v18
			H245.8z"/>
		<path class="st2" d="M264.7,96.1c-1.8,0-3.4-0.4-4.8-1.2c-1.4-0.8-2.5-1.9-3.3-3.3c-0.8-1.4-1.2-3-1.2-4.7c0-1.8,0.4-3.4,1.2-4.8
			c0.8-1.4,1.9-2.5,3.3-3.2c1.4-0.8,3-1.2,4.8-1.2c1.8,0,3.4,0.4,4.8,1.2s2.5,1.9,3.3,3.2c0.8,1.4,1.2,3,1.2,4.8
			c0,1.8-0.4,3.4-1.2,4.8c-0.8,1.4-1.9,2.5-3.3,3.3C268.1,95.7,266.5,96.1,264.7,96.1z M264.7,93.3c1.2,0,2.2-0.3,3.1-0.8
			c0.9-0.5,1.6-1.3,2.2-2.2c0.5-1,0.8-2.1,0.8-3.3c0-1.3-0.3-2.4-0.8-3.3c-0.5-0.9-1.2-1.7-2.2-2.2c-0.9-0.5-2-0.8-3.1-0.8
			c-1.2,0-2.2,0.3-3.1,0.8c-0.9,0.5-1.6,1.3-2.2,2.2c-0.5,0.9-0.8,2.1-0.8,3.3c0,1.3,0.3,2.4,0.8,3.3c0.5,1,1.3,1.7,2.2,2.2
			C262.5,93,263.6,93.3,264.7,93.3z"/>
		<path class="st2" d="M285.5,96.1c-1.5,0-2.9-0.2-4.3-0.6c-1.3-0.4-2.4-0.9-3.2-1.5l1.4-2.6c0.8,0.5,1.7,1,2.9,1.3
			c1.1,0.4,2.3,0.5,3.5,0.5c1.5,0,2.6-0.2,3.3-0.6c0.7-0.4,1-1,1-1.8c0-0.6-0.2-1-0.6-1.3c-0.4-0.3-0.9-0.6-1.6-0.7
			c-0.7-0.2-1.4-0.3-2.2-0.4s-1.6-0.3-2.4-0.5c-0.8-0.2-1.6-0.5-2.2-0.8c-0.7-0.4-1.2-0.8-1.6-1.5c-0.4-0.6-0.6-1.5-0.6-2.5
			c0-1.1,0.3-2,0.9-2.9c0.6-0.8,1.5-1.4,2.6-1.9c1.1-0.4,2.5-0.7,4-0.7c1.2,0,2.4,0.1,3.6,0.4c1.2,0.3,2.2,0.7,3,1.2l-1.4,2.6
			c-0.8-0.5-1.7-0.9-2.5-1.1c-0.9-0.2-1.8-0.3-2.7-0.3c-1.4,0-2.5,0.2-3.2,0.7s-1.1,1.1-1.1,1.8c0,0.6,0.2,1.1,0.6,1.4
			c0.4,0.3,1,0.6,1.6,0.8c0.7,0.2,1.4,0.3,2.2,0.5c0.8,0.1,1.6,0.3,2.4,0.5c0.8,0.2,1.6,0.5,2.2,0.8c0.7,0.3,1.2,0.8,1.6,1.4
			c0.4,0.6,0.6,1.4,0.6,2.4c0,1.1-0.3,2-1,2.8c-0.6,0.8-1.5,1.4-2.7,1.9C288.5,95.9,287.1,96.1,285.5,96.1z"/>
		<path class="st2" d="M311.7,74.5c-0.6,0-1.2-0.2-1.6-0.6s-0.6-0.9-0.6-1.5c0-0.6,0.2-1.1,0.6-1.5s0.9-0.6,1.6-0.6
			c0.6,0,1.2,0.2,1.6,0.6c0.4,0.4,0.6,0.9,0.6,1.5c0,0.6-0.2,1.1-0.6,1.5C312.9,74.2,312.4,74.5,311.7,74.5z M310.1,95.9v-18h3.3v18
			H310.1z"/>
		<path class="st2" d="M330.9,77.8c1.5,0,2.8,0.3,3.9,0.8c1.1,0.6,2,1.4,2.6,2.6c0.6,1.2,1,2.6,1,4.4v10.4h-3.3v-10
			c0-1.7-0.4-3.1-1.3-3.9s-2-1.3-3.6-1.3c-1.2,0-2.2,0.2-3,0.7c-0.9,0.5-1.5,1.1-2,2c-0.5,0.9-0.7,2-0.7,3.3v9.3h-3.3v-18h3.1v4.9
			l-0.5-1.3c0.6-1.2,1.5-2.1,2.7-2.8S329.3,77.8,330.9,77.8z"/>
		<path class="st2" d="M343.7,80.6v-2.7h11.5v2.7H343.7z M352.4,96.1c-1.8,0-3.2-0.5-4.2-1.5c-1-1-1.5-2.4-1.5-4.2V74h3.3v16.4
			c0,1,0.2,1.7,0.7,2.2c0.5,0.5,1.2,0.8,2.1,0.8c1,0,1.9-0.3,2.5-0.8l1,2.3c-0.5,0.4-1.1,0.7-1.8,1C353.9,96,353.2,96.1,352.4,96.1z
			"/>
		<path class="st2" d="M369.5,96.1c-1.9,0-3.6-0.4-5.1-1.2c-1.5-0.8-2.6-1.9-3.4-3.3c-0.8-1.4-1.2-3-1.2-4.8c0-1.8,0.4-3.4,1.2-4.8
			c0.8-1.4,1.9-2.5,3.2-3.2c1.4-0.8,2.9-1.2,4.6-1.2c1.7,0,3.3,0.4,4.6,1.2c1.3,0.8,2.4,1.9,3.1,3.2s1.1,3,1.1,4.9
			c0,0.1,0,0.3,0,0.5c0,0.2,0,0.4-0.1,0.5h-15.3v-2.3H376l-1.3,0.8c0-1.2-0.2-2.2-0.7-3.1s-1.2-1.6-2.1-2.1c-0.9-0.5-1.9-0.8-3-0.8
			c-1.1,0-2.1,0.3-3,0.8s-1.6,1.2-2.1,2.1c-0.5,0.9-0.7,2-0.7,3.1v0.5c0,1.2,0.3,2.3,0.8,3.2c0.6,0.9,1.3,1.7,2.3,2.2
			c1,0.5,2.1,0.8,3.4,0.8c1.1,0,2-0.2,2.9-0.5c0.9-0.4,1.6-0.9,2.3-1.6l1.8,2.1c-0.8,1-1.8,1.7-3,2.2
			C372.3,95.9,371,96.1,369.5,96.1z"/>
		<path class="st2" d="M391.5,95.2c-1.7,0-3.3-0.4-4.7-1.1c-1.4-0.7-2.5-1.8-3.3-3.1c-0.8-1.3-1.2-2.8-1.2-4.6
			c0-1.7,0.4-3.3,1.2-4.6c0.8-1.3,1.9-2.3,3.3-3c1.4-0.7,2.9-1.1,4.7-1.1c1.5,0,2.9,0.3,4.2,0.9c1.3,0.6,2.3,1.6,3,2.9
			c0.8,1.3,1.1,2.9,1.1,4.9c0,1.9-0.4,3.6-1.1,4.9c-0.8,1.3-1.8,2.3-3,2.9C394.5,94.9,393,95.2,391.5,95.2z M391.9,102.7
			c-1.7,0-3.3-0.2-4.8-0.7c-1.6-0.5-2.8-1.1-3.8-2l1.6-2.5c0.8,0.7,1.9,1.3,3.1,1.7c1.2,0.4,2.5,0.6,3.8,0.6c2.1,0,3.7-0.5,4.7-1.5
			c1-1,1.5-2.5,1.5-4.6V90l0.3-3.6l-0.2-3.6v-4.9h3.1v15.6c0,3.2-0.8,5.5-2.4,7C397.3,102,395,102.7,391.9,102.7z M391.9,92.3
			c1.2,0,2.3-0.2,3.2-0.7c0.9-0.5,1.7-1.2,2.2-2.1s0.8-1.9,0.8-3.1c0-1.2-0.3-2.2-0.8-3.1s-1.3-1.6-2.2-2.1c-0.9-0.5-2-0.7-3.2-0.7
			c-1.2,0-2.3,0.2-3.2,0.7c-0.9,0.5-1.7,1.2-2.2,2.1c-0.5,0.9-0.8,1.9-0.8,3.1c0,1.2,0.3,2.2,0.8,3.1c0.5,0.9,1.3,1.6,2.2,2.1
			C389.6,92.1,390.7,92.3,391.9,92.3z"/>
		<path class="st2" d="M409.2,95.9v-18h3.1v4.9l-0.3-1.2c0.5-1.2,1.3-2.2,2.5-2.9c1.2-0.7,2.6-1,4.4-1v3.2c-0.1,0-0.3,0-0.4,0
			c-0.1,0-0.2,0-0.4,0c-1.7,0-3.1,0.5-4.1,1.6c-1,1-1.5,2.5-1.5,4.5v9H409.2z"/>
		<path class="st2" d="M428.7,96.1c-1.3,0-2.5-0.2-3.5-0.7c-1-0.5-1.8-1.1-2.3-1.9c-0.5-0.8-0.8-1.7-0.8-2.7c0-1,0.2-1.9,0.7-2.7
			c0.5-0.8,1.2-1.4,2.3-1.9c1.1-0.5,2.5-0.7,4.3-0.7h5.7v2.3h-5.6c-1.6,0-2.7,0.3-3.3,0.8c-0.6,0.5-0.8,1.2-0.8,2
			c0,0.9,0.4,1.6,1.1,2.1c0.7,0.5,1.7,0.8,2.9,0.8c1.2,0,2.3-0.3,3.2-0.8c0.9-0.5,1.6-1.3,2-2.4l0.6,2.2c-0.4,1.1-1.2,1.9-2.3,2.5
			C431.7,95.8,430.3,96.1,428.7,96.1z M434.6,95.9v-3.8l-0.2-0.7v-6.5c0-1.4-0.4-2.5-1.2-3.2c-0.8-0.8-2-1.1-3.6-1.1
			c-1.1,0-2.1,0.2-3.1,0.5c-1,0.4-1.9,0.8-2.6,1.4l-1.4-2.4c0.9-0.7,2-1.3,3.3-1.7c1.3-0.4,2.7-0.6,4.1-0.6c2.5,0,4.4,0.6,5.7,1.8
			c1.3,1.2,2,3,2,5.5v10.9H434.6z"/>
		<path class="st2" d="M445.5,95.9V70.7h3.3v25.2H445.5z"/>
		<path class="st2" d="M464.8,96.1c-1.9,0-3.6-0.4-5.1-1.2c-1.5-0.8-2.6-1.9-3.4-3.3c-0.8-1.4-1.2-3-1.2-4.8c0-1.8,0.4-3.4,1.2-4.8
			c0.8-1.4,1.9-2.5,3.2-3.2c1.4-0.8,2.9-1.2,4.6-1.2c1.7,0,3.3,0.4,4.6,1.2c1.3,0.8,2.4,1.9,3.1,3.2s1.1,3,1.1,4.9
			c0,0.1,0,0.3,0,0.5c0,0.2,0,0.4-0.1,0.5h-15.3v-2.3h13.6l-1.3,0.8c0-1.2-0.2-2.2-0.7-3.1s-1.2-1.6-2.1-2.1c-0.9-0.5-1.9-0.8-3-0.8
			c-1.1,0-2.1,0.3-3,0.8s-1.6,1.2-2.1,2.1c-0.5,0.9-0.7,2-0.7,3.1v0.5c0,1.2,0.3,2.3,0.8,3.2c0.6,0.9,1.3,1.7,2.3,2.2
			c1,0.5,2.1,0.8,3.4,0.8c1.1,0,2-0.2,2.9-0.5c0.9-0.4,1.6-0.9,2.3-1.6l1.8,2.1c-0.8,1-1.8,1.7-3,2.2
			C467.6,95.9,466.2,96.1,464.8,96.1z"/>
		<path class="st2" d="M484.5,96.1c-1.5,0-2.9-0.2-4.3-0.6c-1.3-0.4-2.4-0.9-3.2-1.5l1.4-2.6c0.8,0.5,1.7,1,2.9,1.3
			c1.1,0.4,2.3,0.5,3.5,0.5c1.5,0,2.6-0.2,3.3-0.6c0.7-0.4,1-1,1-1.8c0-0.6-0.2-1-0.6-1.3c-0.4-0.3-0.9-0.6-1.6-0.7
			c-0.7-0.2-1.4-0.3-2.2-0.4s-1.6-0.3-2.4-0.5c-0.8-0.2-1.6-0.5-2.2-0.8c-0.7-0.4-1.2-0.8-1.6-1.5c-0.4-0.6-0.6-1.5-0.6-2.5
			c0-1.1,0.3-2,0.9-2.9c0.6-0.8,1.5-1.4,2.6-1.9c1.1-0.4,2.5-0.7,4-0.7c1.2,0,2.4,0.1,3.6,0.4c1.2,0.3,2.2,0.7,3,1.2l-1.4,2.6
			c-0.8-0.5-1.7-0.9-2.5-1.1c-0.9-0.2-1.8-0.3-2.7-0.3c-1.4,0-2.5,0.2-3.2,0.7s-1.1,1.1-1.1,1.8c0,0.6,0.2,1.1,0.6,1.4
			c0.4,0.3,1,0.6,1.6,0.8c0.7,0.2,1.4,0.3,2.2,0.5c0.8,0.1,1.6,0.3,2.4,0.5c0.8,0.2,1.6,0.5,2.2,0.8c0.7,0.3,1.2,0.8,1.6,1.4
			c0.4,0.6,0.6,1.4,0.6,2.4c0,1.1-0.3,2-1,2.8c-0.6,0.8-1.5,1.4-2.7,1.9C487.5,95.9,486.1,96.1,484.5,96.1z"/>
	</g>
</g>
</svg>
